# Made in Blockbench 4.12.4
mtllib buffer.mtl

o beveled_cuboid
v 0.4375 0.21875 0.21875
v 0.4375 0.53125 -0.21875
v -0.4375 0.21875 0.21875
v -0.4375 0.53125 -0.21875
v 0.4375 -0.03125 0.21875
v 0.4375 -0.03125 -0.21875
v -0.4375 -0.03125 0.21875
v -0.4375 -0.03125 -0.21875
v -0.5 0 0.21875
v -0.5 0.1875 0.21875
v -0.5 0 -0.21875
v -0.5 0.5 -0.21875
v 0.5 0 0.21875
v 0.5 0.1875 0.21875
v 0.5 0 -0.21875
v 0.5 0.5 -0.21875
v 0.4375 0 -0.25
v 0.4375 0.5 -0.25
v -0.4375 0 -0.25
v -0.4375 0.5 -0.25
v 0.4375 0 0.25
v 0.4375 0.1875 0.25
v -0.4375 0 0.25
v -0.4375 0.1875 0.25
v 0.4375 0.53125 0
v -0.4375 0.53125 0
v -0.5 0.5 0
v -0.5 0 0
v -0.4375 -0.03125 0
v 0.4375 -0.03125 0
v 0.5 0 0
v 0.5 0.5 0
vt 0.390625 0.921875
vt 0.3359375 0.921875
vt 0.3359375 0.796875
vt 0.390625 0.796875
vt 0.28125 0.65625
vt 0.3359375 0.65625
vt 0.3359375 0.78125
vt 0.28125 0.78125
vt 0.30078125 1
vt 0.30078125 0.9453125
vt 0.51953125 0.9453125
vt 0.51953125 1
vt 0.23828125 0.75
vt 0.23828125 0.8046875
vt 0.01953125 0.8046875
vt 0.01953125 0.75
vt 0.51953125 0.59375
vt 0.51953125 0.640625
vt 0.30078125 0.640625
vt 0.30078125 0.59375
vt 0.23828125 1
vt 0.01953125 1
vt 0.01953125 0.875
vt 0.23828125 0.875
vt 0.51953125 1
vt 0.51953125 0.9453125
vt 0.5370015625 0.9453125
vt 0.5370015625 1
vt 0.2833109375 1
vt 0.28331093749999997 0.9453125
vt 0.30078125 0.9453125
vt 0.30078125 1
vt 0.23828125 0.6279622703729641
vt 0.23828125 0.6390107078729642
vt 0.01953125 0.6390107078729642
vt 0.01953125 0.6279622703729641
vt 0.61328125 0.78125
vt 0.39453125 0.78125
vt 0.39453125 0.7702015625
vt 0.61328125 0.7702015625
vt 0.2557515625 0.75
vt 0.2557515625 0.8046875
vt 0.23828125 0.8046875
vt 0.23828125 0.75
vt 0.01953125 0.75
vt 0.01953125 0.8046875
vt 0.0020609374999999985 0.8046875
vt 0.0020609374999999985 0.75
vt 0.01953125 0.59375
vt 0.23828125 0.59375
vt 0.23828125 0.6047984375
vt 0.01953125 0.6047984375
vt 0.42578125 0.9172984375
vt 0.42578125 0.90625
vt 0.64453125 0.90625
vt 0.64453125 0.9172984375
vt 0.0020609374999999985 0.875
vt 0.01953125 0.875
vt 0.01953125 1
vt 0.0020609374999999985 1
vt 0.51953125 0.640625
vt 0.51953125 0.59375
vt 0.5370015625 0.59375
vt 0.5370015625 0.640625
vt 0.23828125 1
vt 0.23828125 0.875
vt 0.2557515625 0.875
vt 0.2557515625 1
vt 0.2833109375 0.59375
vt 0.30078125 0.59375
vt 0.30078125 0.640625
vt 0.2833109375 0.640625
vt 0.23828125 0.59375
vt 0.2548550436804731 0.5992736096817222
vt 0.23828125 0.6047982075752133
vt 0.01953125 0.59375
vt 0.01953125 0.6047982075752133
vt 0.0029574563195268744 0.5992736096817222
vt 0.42578125 0.90625
vt 0.42578125 0.9172982075752133
vt 0.4092074563195269 0.9117736096817223
vt 0.64453125 0.90625
vt 0.6611050436804731 0.9117736096817223
vt 0.64453125 0.9172982075752133
vt 0.23828125 0.6390107078729642
vt 0.23828125 0.6279625002977509
vt 0.2548550436804731 0.6334870981912419
vt 0.01953125 0.6390107078729642
vt 0.0029574563195268744 0.6334870981912419
vt 0.01953125 0.6279625002977509
vt 0.39453125 0.78125
vt 0.3779574563195269 0.7757263903182778
vt 0.39453125 0.7702017924247867
vt 0.61328125 0.78125
vt 0.61328125 0.7702017924247867
vt 0.6298550436804731 0.7757263903182778
vt 0.23828125 0.6390107078729642
vt 0.23828125 0.7343747703729642
vt 0.01953125 0.7343747703729642
vt 0.01953125 0.6390107078729642
vt 0.01953125 0.6390104782459284
vt 0.01953125 0.7343747703729642
vt 0.0032759575479487935 0.7279741811427761
vt 0.0032777877521994736 0.6326111272261024
vt 0.390625 0.703125
vt 0.3359375 0.78125
vt 0.3359375 0.65625
vt 0.390625 0.65625
vt 0.0020609374999999985 0.859375
vt 0.0020609374999999985 0.8046875
vt 0.01953125 0.8046875
vt 0.019531249999999986 0.859375
vt 0.01953125 0.859375
vt 0.01953125 0.8046875
vt 0.23828125 0.8046875
vt 0.23828125 0.859375
vt 0.23828125 0.859375
vt 0.23828125 0.8046875
vt 0.2557515625 0.8046875
vt 0.2557515625 0.859375
vt 0.28125 0.796875
vt 0.3359375 0.796875
vt 0.3359375 0.921875
vt 0.28125 0.84375
vt 0.25453471224780055 0.6326113568531383
vt 0.2545365424520512 0.727974410769812
vt 0.23828125 0.734375
vt 0.23828125 0.6390107078729642
vn 1 0 0
vn -1 0 0
vn 0 1 0
vn 0 -1 0
vn 0 0 1
vn 0 0 -1
vn 0.44721359549995804 0.8944271909999161 0
vn -0.44721359549995804 0.8944271909999161 0
vn 0 0.7071067811865476 0.7071067811865476
vn 0 0.7071067811865476 -0.7071067811865476
vn 0.44721359549995804 -0.8944271909999161 0
vn -0.44721359549995804 -0.8944271909999161 0
vn 0 -0.7071067811865476 0.7071067811865476
vn 0 -0.7071067811865476 -0.7071067811865476
vn 0.44721359549995804 0 -0.8944271909999161
vn 0.44721359549995804 0 0.8944271909999161
vn -0.44721359549995804 0 -0.8944271909999161
vn -0.44721359549995804 0 0.8944271909999161
vn 0.3333333333333333 -0.6666666666666666 0.6666666666666666
vn -0.3333333333333333 -0.6666666666666666 0.6666666666666666
vn 0.3333333333333333 -0.6666666666666666 -0.6666666666666666
vn -0.3333333333333333 -0.6666666666666666 -0.6666666666666666
vn 0.3333333333333333 0.6666666666666666 0.6666666666666666
vn -0.3333333333333333 0.6666666666666666 0.6666666666666666
vn 0.3333333333333333 0.6666666666666666 -0.6666666666666666
vn -0.3333333333333333 0.6666666666666666 -0.6666666666666666
vn 0 0.5734623443633284 0.8192319205190406
vn -0.2756247308353552 0.5512494616707104 0.7874992309581578
vn -1 0 0
vn -0.44721359549995804 -0.8944271909999161 0
vn 0 -1 0
vn 0.44721359549995804 -0.8944271909999161 0
vn 1 0 0
vn 0.2756247308353552 0.5512494616707104 0.7874992309581578
usemtl m_c5d5c39e-ece0-cefc-6475-e77205fbd17e
f 16/1/1 32/2/1 31/3/1 15/4/1
f 11/5/2 28/6/2 27/7/2 12/8/2
f 4/9/3 26/10/3 25/11/3 2/12/3
f 6/13/4 30/14/4 29/15/4 8/16/4
f 21/17/5 22/18/5 24/19/5 23/20/5
f 20/21/6 18/22/6 17/23/6 19/24/6
f 2/25/7 25/26/7 32/27/7 16/28/7
f 12/29/8 27/30/8 26/31/8 4/32/8
f 22/33/9 1/34/9 3/35/9 24/36/9
f 4/37/10 2/38/10 18/39/10 20/40/10
f 15/41/11 31/42/11 30/43/11 6/44/11
f 8/45/12 29/46/12 28/47/12 11/48/12
f 7/49/13 5/50/13 21/51/13 23/52/13
f 17/53/14 6/54/14 8/55/14 19/56/14
f 15/57/15 17/58/15 18/59/15 16/60/15
f 22/61/16 21/62/16 13/63/16 14/64/16
f 20/65/17 19/66/17 11/67/17 12/68/17
f 9/69/18 23/70/18 24/71/18 10/72/18
f 5/73/19 13/74/19 21/75/19
f 7/76/20 23/77/20 9/78/20
f 6/79/21 17/80/21 15/81/21
f 8/82/22 11/83/22 19/84/22
f 1/85/23 22/86/23 14/87/23
f 3/88/24 10/89/24 24/90/24
f 2/91/25 16/92/25 18/93/25
f 4/94/26 20/95/26 12/96/26
f 1/97/27 25/98/27 26/99/27 3/100/27
f 3/101/28 26/102/28 27/103/28 10/104/28
f 10/105/29 27/106/29 28/107/29 9/108/29
f 9/109/30 28/110/30 29/111/30 7/112/30
f 7/113/31 29/114/31 30/115/31 5/116/31
f 5/117/32 30/118/32 31/119/32 13/120/32
f 13/121/33 31/122/33 32/123/33 14/124/33
f 14/125/34 32/126/34 25/127/34 1/128/34
o beveled_cuboid
v 0.359375 0.375 -0.1953125
v 0.359375 0.375 -0.3046875
v 0.140625 0.375 -0.1953125
v 0.140625 0.375 -0.3046875
v 0.359375 0.25 -0.1953125
v 0.359375 0.25 -0.3046875
v 0.140625 0.25 -0.1953125
v 0.140625 0.25 -0.3046875
v 0.125 0.265625 -0.1953125
v 0.125 0.359375 -0.1953125
v 0.125 0.265625 -0.3046875
v 0.125 0.359375 -0.3046875
v 0.375 0.265625 -0.1953125
v 0.375 0.359375 -0.1953125
v 0.375 0.265625 -0.3046875
v 0.375 0.359375 -0.3046875
v 0.359375 0.265625 -0.3125
v 0.359375 0.359375 -0.3125
v 0.140625 0.265625 -0.3125
v 0.140625 0.359375 -0.3125
v 0.359375 0.265625 -0.1875
v 0.359375 0.359375 -0.1875
v 0.140625 0.265625 -0.1875
v 0.140625 0.359375 -0.1875
vt 0.46875 0.578125
vt 0.4375 0.578125
vt 0.4375 0.546875
vt 0.46875 0.546875
vt 0.21875 0.5
vt 0.21875 0.53125
vt 0.1875 0.53125
vt 0.1875 0.5
vt 0.25 0.546875
vt 0.25 0.578125
vt 0.1875 0.578125
vt 0.1875 0.546875
vt 0.265625 0.546875
vt 0.328125 0.546875
vt 0.328125 0.578125
vt 0.265625 0.578125
vt 0.15625 0.5503203125
vt 0.15625 0.5737578125
vt 0.1015625 0.5737578125
vt 0.1015625 0.5503203125
vt 0.47265625 0.7456328125
vt 0.41796875 0.7456328125
vt 0.41796875 0.7221953125
vt 0.47265625 0.7221953125
vt 0.453125 0.53125
vt 0.421875 0.53125
vt 0.421875 0.515625
vt 0.453125 0.515625
vt 0.5 0.515625
vt 0.5 0.53125
vt 0.46875 0.53125
vt 0.46875 0.515625
vt 0.15625 0.5737578125
vt 0.15625 0.578125
vt 0.1015625 0.578125
vt 0.1015625 0.5737578125
vt 0.47265625 0.75
vt 0.41796875 0.75
vt 0.41796875 0.7456328125
vt 0.47265625 0.7456328125
vt 0 0.515625
vt 0 0.5
vt 0.03125 0.5
vt 0.03125 0.515625
vt 0.046875 0.5
vt 0.078125 0.5
vt 0.078125 0.515625
vt 0.046875 0.515625
vt 0.1015625 0.545953125
vt 0.15625 0.545953125
vt 0.15625 0.5503203125
vt 0.1015625 0.5503203125
vt 0.41796875 0.7221953125
vt 0.41796875 0.717828125
vt 0.47265625 0.717828125
vt 0.47265625 0.7221953125
vt 0.41368976820862524 0.7213227392833279
vt 0.41796875 0.7221960327559013
vt 0.4132820229557779 0.7451601568598805
vt 0.4090030411644031 0.744286863387307
vt 0.15625 0.5737578125
vt 0.15625 0.5503203125
vt 0.16061718749999998 0.5503203125
vt 0.16061718749999998 0.5737578125
vt 0.4773429770442221 0.7451601568598805
vt 0.47265625 0.7221960327559013
vt 0.47693523179137476 0.7213227392833279
vt 0.4816219588355969 0.744286863387307
vt 0.0971953125 0.5503203125
vt 0.1015625 0.5503203125
vt 0.1015625 0.5737578125
vt 0.0971953125 0.5737578125
vt 0.1571234375 0.5460406250000001
vt 0.16061718749999998 0.5503203125
vt 0.15625 0.5503203125
vt 0.10068906250000001 0.5460406250000001
vt 0.1015625 0.5503203125
vt 0.0971953125 0.5503203125
vt 0.41796875 0.717828125
vt 0.41796875 0.7221960327559013
vt 0.41368976820862524 0.7213227392833279
vt 0.47265625 0.717828125
vt 0.47693523179137476 0.7213227392833279
vt 0.47265625 0.7221960327559013
vt 0.1571234375 0.5780359374999999
vt 0.15625 0.5737578125
vt 0.16061718749999998 0.5737578125
vt 0.10068906250000001 0.5780359374999999
vt 0.0971953125 0.5737578125
vt 0.1015625 0.5737578125
vt 0.41796875 0.75
vt 0.4136898307105702 0.7465072228395344
vt 0.41796875 0.7456336231745266
vt 0.47265625 0.75
vt 0.47265625 0.7456336231745266
vt 0.4769351692894298 0.7465072228395344
vn 1 0 0
vn -1 0 0
vn 0 1 0
vn 0 -1 0
vn 0 0 1
vn 0 0 -1
vn 0.7071067811865476 0.7071067811865476 0
vn -0.7071067811865476 0.7071067811865476 0
vn 0 0.44721359549995804 0.8944271909999161
vn 0 0.44721359549995804 -0.8944271909999161
vn 0.7071067811865476 -0.7071067811865476 0
vn -0.7071067811865476 -0.7071067811865476 0
vn 0 -0.44721359549995804 0.8944271909999161
vn 0 -0.44721359549995804 -0.8944271909999161
vn 0.44721359549995804 0 -0.8944271909999161
vn 0.44721359549995804 0 0.8944271909999161
vn -0.44721359549995804 0 -0.8944271909999161
vn -0.44721359549995804 0 0.8944271909999161
vn 0.4082482904638631 -0.4082482904638631 0.8164965809277261
vn -0.4082482904638631 -0.4082482904638631 0.8164965809277261
vn 0.4082482904638631 -0.4082482904638631 -0.8164965809277261
vn -0.4082482904638631 -0.4082482904638631 -0.8164965809277261
vn 0.4082482904638631 0.4082482904638631 0.8164965809277261
vn -0.4082482904638631 0.4082482904638631 0.8164965809277261
vn 0.4082482904638631 0.4082482904638631 -0.8164965809277261
vn -0.4082482904638631 0.4082482904638631 -0.8164965809277261
usemtl m_c5d5c39e-ece0-cefc-6475-e77205fbd17e
f 48/129/35 46/130/35 45/131/35 47/132/35
f 41/133/36 42/134/36 44/135/36 43/136/36
f 33/137/37 34/138/37 36/139/37 35/140/37
f 40/141/38 38/142/38 37/143/38 39/144/38
f 53/145/39 54/146/39 56/147/39 55/148/39
f 52/149/40 50/150/40 49/151/40 51/152/40
f 34/153/41 33/154/41 46/155/41 48/156/41
f 42/157/42 35/158/42 36/159/42 44/160/42
f 54/161/43 33/162/43 35/163/43 56/164/43
f 36/165/44 34/166/44 50/167/44 52/168/44
f 45/169/45 37/170/45 38/171/45 47/172/45
f 40/173/46 39/174/46 41/175/46 43/176/46
f 39/177/47 37/178/47 53/179/47 55/180/47
f 49/181/48 38/182/48 40/183/48 51/184/48
f 47/185/49 49/186/49 50/187/49 48/188/49
f 54/189/50 53/190/50 45/191/50 46/192/50
f 52/193/51 51/194/51 43/195/51 44/196/51
f 41/197/52 55/198/52 56/199/52 42/200/52
f 37/201/53 45/202/53 53/203/53
f 39/204/54 55/205/54 41/206/54
f 38/207/55 49/208/55 47/209/55
f 40/210/56 43/211/56 51/212/56
f 33/213/57 54/214/57 46/215/57
f 35/216/58 42/217/58 56/218/58
f 34/219/59 48/220/59 50/221/59
f 36/222/60 52/223/60 44/224/60
o beveled_cuboid
v -0.359375 0.375 -0.1953125
v -0.359375 0.375 -0.3046875
v -0.140625 0.375 -0.1953125
v -0.140625 0.375 -0.3046875
v -0.359375 0.25 -0.1953125
v -0.359375 0.25 -0.3046875
v -0.140625 0.25 -0.1953125
v -0.140625 0.25 -0.3046875
v -0.125 0.265625 -0.1953125
v -0.125 0.359375 -0.1953125
v -0.125 0.265625 -0.3046875
v -0.125 0.359375 -0.3046875
v -0.375 0.265625 -0.1953125
v -0.375 0.359375 -0.1953125
v -0.375 0.265625 -0.3046875
v -0.375 0.359375 -0.3046875
v -0.359375 0.265625 -0.3125
v -0.359375 0.359375 -0.3125
v -0.140625 0.265625 -0.3125
v -0.140625 0.359375 -0.3125
v -0.359375 0.265625 -0.1875
v -0.359375 0.359375 -0.1875
v -0.140625 0.265625 -0.1875
v -0.140625 0.359375 -0.1875
vt 0.375 0.546875
vt 0.375 0.578125
vt 0.34375 0.578125
vt 0.34375 0.546875
vt 0.421875 0.578125
vt 0.390625 0.578125
vt 0.390625 0.546875
vt 0.421875 0.546875
vt 0.46875 0.828125
vt 0.40625 0.828125
vt 0.40625 0.796875
vt 0.46875 0.796875
vt 0.40625 0.6875
vt 0.40625 0.65625
vt 0.46875 0.65625
vt 0.46875 0.6875
vt 0.47265625 0.8862578125
vt 0.41796875 0.8862578125
vt 0.41796875 0.8628203125
vt 0.47265625 0.8628203125
vt 0.0625 0.5503203125
vt 0.0625 0.5737578125
vt 0.0078125 0.5737578125
vt 0.0078125 0.5503203125
vt 0.265625 0.515625
vt 0.265625 0.53125
vt 0.234375 0.53125
vt 0.234375 0.515625
vt 0.3125 0.53125
vt 0.28125 0.53125
vt 0.28125 0.515625
vt 0.3125 0.515625
vt 0.47265625 0.890625
vt 0.41796875 0.890625
vt 0.41796875 0.8862578125
vt 0.47265625 0.8862578125
vt 0.0625 0.5737578125
vt 0.0625 0.578125
vt 0.0078125 0.578125
vt 0.0078125 0.5737578125
vt 0.328125 0.515625
vt 0.359375 0.515625
vt 0.359375 0.53125
vt 0.328125 0.53125
vt 0.375 0.53125
vt 0.375 0.515625
vt 0.40625 0.515625
vt 0.40625 0.53125
vt 0.41796875 0.8628203125
vt 0.41796875 0.858453125
vt 0.47265625 0.858453125
vt 0.47265625 0.8628203125
vt 0.0078125 0.545953125
vt 0.0625 0.545953125
vt 0.0625 0.5503203125
vt 0.0078125 0.5503203125
vt 0.0625 0.5737578125
vt 0.0625 0.5503203125
vt 0.0668671875 0.5503203125
vt 0.0668671875 0.5737578125
vt 0.41368976820862524 0.8619477392833279
vt 0.41796875 0.8628210327559013
vt 0.4132820229557779 0.8857851568598805
vt 0.4090030411644031 0.884911863387307
vt 0.0034453125000000057 0.5503203125
vt 0.0078125 0.5503203125
vt 0.0078125 0.5737578125
vt 0.0034453125000000057 0.5737578125
vt 0.4773429770442221 0.8857851568598805
vt 0.47265625 0.8628210327559013
vt 0.47693523179137476 0.8619477392833279
vt 0.4816219588355969 0.8849118633873071
vt 0.41368976820862524 0.8619477392833279
vt 0.41796875 0.858453125
vt 0.41796875 0.8628210327559013
vt 0.47265625 0.8628210327559013
vt 0.47265625 0.858453125
vt 0.47693523179137476 0.8619477392833279
vt 0.0625 0.5503203125
vt 0.06337343749999999 0.5460406250000001
vt 0.0668671875 0.5503203125
vt 0.0034453125000000057 0.5503203125
vt 0.0069390625000000025 0.5460406250000001
vt 0.0078125 0.5503203125
vt 0.41796875 0.8862586231745266
vt 0.41796875 0.890625
vt 0.4136898307105702 0.8871322228395344
vt 0.4769351692894298 0.8871322228395344
vt 0.47265625 0.890625
vt 0.47265625 0.8862586231745266
vt 0.0668671875 0.5737578125
vt 0.06337343749999999 0.5780359374999999
vt 0.0625 0.5737578125
vt 0.0078125 0.5737578125
vt 0.0069390625000000025 0.5780359374999999
vt 0.0034453125000000057 0.5737578125
vn -1 0 0
vn 1 0 0
vn 0 1 0
vn 0 -1 0
vn 0 0 1
vn 0 0 -1
vn -0.7071067811865476 0.7071067811865476 0
vn 0.7071067811865476 0.7071067811865476 0
vn 0 0.44721359549995804 0.8944271909999161
vn 0 0.44721359549995804 -0.8944271909999161
vn -0.7071067811865476 -0.7071067811865476 0
vn 0.7071067811865476 -0.7071067811865476 0
vn 0 -0.44721359549995804 0.8944271909999161
vn 0 -0.44721359549995804 -0.8944271909999161
vn -0.44721359549995804 0 -0.8944271909999161
vn -0.44721359549995804 0 0.8944271909999161
vn 0.44721359549995804 0 -0.8944271909999161
vn 0.44721359549995804 0 0.8944271909999161
vn -0.4082482904638631 -0.4082482904638631 0.8164965809277261
vn 0.4082482904638631 -0.4082482904638631 0.8164965809277261
vn -0.4082482904638631 -0.4082482904638631 -0.8164965809277261
vn 0.4082482904638631 -0.4082482904638631 -0.8164965809277261
vn -0.4082482904638631 0.4082482904638631 0.8164965809277261
vn 0.4082482904638631 0.4082482904638631 0.8164965809277261
vn -0.4082482904638631 0.4082482904638631 -0.8164965809277261
vn 0.4082482904638631 0.4082482904638631 -0.8164965809277261
usemtl m_c5d5c39e-ece0-cefc-6475-e77205fbd17e
f 69/225/61 70/226/61 72/227/61 71/228/61
f 68/229/62 66/230/62 65/231/62 67/232/62
f 60/233/63 58/234/63 57/235/63 59/236/63
f 61/237/64 62/238/64 64/239/64 63/240/64
f 80/241/65 78/242/65 77/243/65 79/244/65
f 73/245/66 74/246/66 76/247/66 75/248/66
f 70/249/67 57/250/67 58/251/67 72/252/67
f 60/253/68 59/254/68 66/255/68 68/256/68
f 59/257/69 57/258/69 78/259/69 80/260/69
f 74/261/70 58/262/70 60/263/70 76/264/70
f 62/265/71 61/266/71 69/267/71 71/268/71
f 65/269/72 63/270/72 64/271/72 67/272/72
f 77/273/73 61/274/73 63/275/73 79/276/73
f 64/277/74 62/278/74 73/279/74 75/280/74
f 74/281/75 73/282/75 71/283/75 72/284/75
f 69/285/76 77/286/76 78/287/76 70/288/76
f 67/289/77 75/290/77 76/291/77 68/292/77
f 80/293/78 79/294/78 65/295/78 66/296/78
f 69/297/79 61/298/79 77/299/79
f 79/300/80 63/301/80 65/302/80
f 73/303/81 62/304/81 71/305/81
f 67/306/82 64/307/82 75/308/82
f 78/309/83 57/310/83 70/311/83
f 66/312/84 59/313/84 80/314/84
f 72/315/85 58/316/85 74/317/85
f 76/318/86 60/319/86 68/320/86