# Made in Blockbench 4.12.4
mtllib container.mtl

o holder
v 0.6015625 0.46875 0.4375
v 0.6015625 0.46875 -0.4375
v -0.6015625 0.46875 0.4375
v -0.6015625 0.46875 -0.4375
v 0.6015625 0 0.4375
v 0.6015625 0 -0.4375
v -0.6015625 0 0.4375
v -0.6015625 0 -0.4375
v -0.6875 0.05859375 0.4375
v -0.6875 0.41015625 0.4375
v -0.6875 0.05859375 -0.4375
v -0.6875 0.41015625 -0.4375
v 0.6875 0.05859375 0.4375
v 0.6875 0.41015625 0.4375
v 0.6875 0.05859375 -0.4375
v 0.6875 0.41015625 -0.4375
v 0.6015625 0.05859375 -0.5
v 0.6015625 0.41015625 -0.5
v -0.6015625 0.05859375 -0.5
v -0.6015625 0.41015625 -0.5
v 0.6015625 0.05859375 0.5
v 0.6015625 0.41015625 0.5
v -0.6015625 0.05859375 0.5
v -0.6015625 0.41015625 0.5
v 0.6015625 0.21875 0.4375
v 0.6015625 0.21875 -0.4375
v -0.6015625 0.21875 -0.4375
v -0.6015625 0.21875 0.4375
vt 0.265625 0.7109375
vt 0.15625 0.7109375
vt 0.15625 0.6640625
vt 0.265625 0.6640625
vt 0.3828125 0.6640625
vt 0.3828125 0.7109375
vt 0.2734375 0.7109375
vt 0.2734375 0.6640625
vt 0.3359375 0.7734375
vt 0.3359375 0.8828125
vt 0.1875 0.8828125
vt 0.1875 0.7734375
vt 0.2021484375 0.890625
vt 0.3525390625 0.890625
vt 0.3525390625 1
vt 0.2021484375 1
vt 0.3359375 0.71875
vt 0.3359375 0.765625
vt 0.1875 0.765625
vt 0.1875 0.71875
vt 0.1484375 0.71875
vt 0 0.71875
vt 0 0.671875
vt 0.1484375 0.671875
vt 0.109375 0.625
vt 0 0.625
vt 0 0.609375
vt 0.109375 0.609375
vt 0.484375 0.984375
vt 0.484375 1
vt 0.375 1
vt 0.375 0.984375
vt 0.4365234375 0.64554140625
vt 0.4365234375 0.65625
vt 0.2861328125 0.65625
vt 0.2861328125 0.64554140625
vt 0.4365234375 0.6328125
vt 0.2861328125 0.6328125
vt 0.2861328125 0.62210390625
vt 0.4365234375 0.62210390625
vt 0.365540625 1
vt 0.3525390625 1
vt 0.3525390625 0.890625
vt 0.365540625 0.890625
vt 0.2021484375 0.890625
vt 0.2021484375 1
vt 0.189146875 1
vt 0.189146875 0.890625
vt 0.3564453125 0.74609375
vt 0.5068359375 0.74609375
vt 0.5068359375 0.756803125
vt 0.3564453125 0.756803125
vt 0.3564453125 0.733365625
vt 0.3564453125 0.72265625
vt 0.5068359375 0.72265625
vt 0.5068359375 0.733365625
vt 0.2109375 0.5703125
vt 0.2265625 0.5703125
vt 0.2265625 0.6171875
vt 0.2109375 0.6171875
vt 0.234375 0.6171875
vt 0.234375 0.5703125
vt 0.25 0.5703125
vt 0.25 0.6171875
vt 0.2578125 0.609375
vt 0.2578125 0.5625
vt 0.2734375 0.5625
vt 0.2734375 0.609375
vt 0.28125 0.5625
vt 0.296875 0.5625
vt 0.296875 0.609375
vt 0.28125 0.609375
vt 0.5068359375 0.74609375
vt 0.5188337966743712 0.7511036825892035
vt 0.5068359375 0.7568031986337562
vt 0.3564453125 0.74609375
vt 0.3564453125 0.7568031986337562
vt 0.3444474533256288 0.7511036825892035
vt 0.3564453125 0.72265625
vt 0.3564453125 0.7333656986337562
vt 0.3444474533256288 0.7276661825892035
vt 0.5068359375 0.72265625
vt 0.5188337966743712 0.7276661825892035
vt 0.5068359375 0.7333656986337562
vt 0.4365234375 0.65625
vt 0.4365234375 0.6455412570343985
vt 0.44852111825099056 0.6512411486568301
vt 0.2861328125 0.65625
vt 0.27413513174900944 0.6512411486568301
vt 0.2861328125 0.6455412570343985
vt 0.2861328125 0.6328125
vt 0.27413513174900944 0.6278036486568301
vt 0.2861328125 0.6221037570343985
vt 0.4365234375 0.6328125
vt 0.4365234375 0.6221037570343985
vt 0.44852111825099056 0.6278036486568301
vt 0.15625 0.625
vt 0.265625 0.625
vt 0.265625 0.65625
vt 0.15625 0.65625
vt 0 0.6328125
vt 0.1484375 0.6328125
vt 0.1484375 0.6640625
vt 0 0.6640625
vt 0.34375 0.8125
vt 0.453125 0.8125
vt 0.453125 0.84375
vt 0.34375 0.84375
vt 0.34375 0.8515625
vt 0.4921875 0.8515625
vt 0.4921875 0.8828125
vt 0.34375 0.8828125
vn 1 0 0
vn -1 0 0
vn 0 1 0
vn 0 -1 0
vn 0 0 1
vn 0 0 -1
vn 0.5633368246415098 0.8262273428075477 0
vn -0.5633368246415098 0.8262273428075477 0
vn 0 0.7295372041400852 0.6839411288813297
vn 0 0.7295372041400852 -0.6839411288813297
vn 0.5633368246415098 -0.8262273428075477 0
vn -0.5633368246415098 -0.8262273428075477 0
vn 0 -0.7295372041400852 0.6839411288813297
vn 0 -0.7295372041400852 -0.6839411288813297
vn 0.5881716976750463 0 -0.8087360843031887
vn 0.5881716976750463 0 0.8087360843031887
vn -0.5881716976750463 0 -0.8087360843031887
vn -0.5881716976750463 0 0.8087360843031887
vn 0.4453587042169785 -0.6531927661849019 0.6123682182983454
vn -0.4453587042169785 -0.6531927661849019 0.6123682182983454
vn 0.4453587042169785 -0.6531927661849019 -0.6123682182983454
vn -0.4453587042169785 -0.6531927661849019 -0.6123682182983454
vn 0.4453587042169785 0.6531927661849019 0.6123682182983454
vn -0.4453587042169785 0.6531927661849019 0.6123682182983454
vn 0.4453587042169785 0.6531927661849019 -0.6123682182983454
vn -0.4453587042169785 0.6531927661849019 -0.6123682182983454
vn -1 0 0
vn 0 0 1
vn 1 0 0
vn 0 0 -1
usemtl m_95654248-c438-bb39-0d9c-62460ca3b739
f 16/1/1 14/2/1 13/3/1 15/4/1
f 9/5/2 10/6/2 12/7/2 11/8/2
f 25/9/3 26/10/3 27/11/3 28/12/3
f 8/13/4 6/14/4 5/15/4 7/16/4
f 21/17/5 22/18/5 24/19/5 23/20/5
f 20/21/6 18/22/6 17/23/6 19/24/6
f 2/25/7 1/26/7 14/27/7 16/28/7
f 10/29/8 3/30/8 4/31/8 12/32/8
f 22/33/9 1/34/9 3/35/9 24/36/9
f 4/37/10 2/38/10 18/39/10 20/40/10
f 13/41/11 5/42/11 6/43/11 15/44/11
f 8/45/12 7/46/12 9/47/12 11/48/12
f 7/49/13 5/50/13 21/51/13 23/52/13
f 17/53/14 6/54/14 8/55/14 19/56/14
f 15/57/15 17/58/15 18/59/15 16/60/15
f 22/61/16 21/62/16 13/63/16 14/64/16
f 20/65/17 19/66/17 11/67/17 12/68/17
f 9/69/18 23/70/18 24/71/18 10/72/18
f 5/73/19 13/74/19 21/75/19
f 7/76/20 23/77/20 9/78/20
f 6/79/21 17/80/21 15/81/21
f 8/82/22 11/83/22 19/84/22
f 1/85/23 22/86/23 14/87/23
f 3/88/24 10/89/24 24/90/24
f 2/91/25 16/92/25 18/93/25
f 4/94/26 20/95/26 12/96/26
f 26/97/27 25/98/27 1/99/27 2/100/27
f 27/101/28 26/102/28 2/103/28 4/104/28
f 28/105/29 27/106/29 4/107/29 3/108/29
f 25/109/30 28/110/30 3/111/30 1/112/30
o lid
v 0.6015625 0.5625 0.4375
v 0.6015625 0.5625 -0.4375
v -0.6015625 0.5625 0.4375
v -0.6015625 0.5625 -0.4375
v 0.6015625 0.4375 0.4375
v 0.6015625 0.4375 -0.4375
v -0.6015625 0.4375 0.4375
v -0.6015625 0.4375 -0.4375
v -0.6875 0.453125 0.4375
v -0.6875 0.546875 0.4375
v -0.6875 0.453125 -0.4375
v -0.6875 0.546875 -0.4375
v 0.6875 0.453125 0.4375
v 0.6875 0.546875 0.4375
v 0.6875 0.453125 -0.4375
v 0.6875 0.546875 -0.4375
v 0.6015625 0.453125 -0.5
v 0.6015625 0.546875 -0.5
v -0.6015625 0.453125 -0.5
v -0.6015625 0.546875 -0.5
v 0.6015625 0.453125 0.5
v 0.6015625 0.546875 0.5
v -0.6015625 0.453125 0.5
v -0.6015625 0.546875 0.5
vt 0.484375 0.9765625
vt 0.375 0.9765625
vt 0.375 0.9609375
vt 0.484375 0.9609375
vt 0.484375 0.9375
vt 0.484375 0.953125
vt 0.375 0.953125
vt 0.375 0.9375
vt 0.1630859375 0.882571875
vt 0.1630859375 0.991946875
vt 0.0126953125 0.991946875
vt 0.0126953125 0.882571875
vt 0.0126953125 0.738521875
vt 0.1630859375 0.738521875
vt 0.1630859375 0.847896875
vt 0.0126953125 0.847896875
vt 0.4921875 0.7890625
vt 0.4921875 0.8046875
vt 0.34375 0.8046875
vt 0.34375 0.7890625
vt 0.4921875 0.78125
vt 0.34375 0.78125
vt 0.34375 0.765625
vt 0.4921875 0.765625
vt 0.1630859375 0.991946875
vt 0.1630859375 0.882571875
vt 0.1740046875 0.882571875
vt 0.1740046875 0.991946875
vt 0.0017765624999999952 0.882571875
vt 0.012695312499999986 0.882571875
vt 0.0126953125 0.991946875
vt 0.001776562500000009 0.991946875
vt 0.1630859375 0.87451875
vt 0.1630859375 0.882571875
vt 0.0126953125 0.882571875
vt 0.0126953125 0.87451875
vt 0.0126953125 0.991946875
vt 0.1630859375 0.991946875
vt 0.1630859375 1
vt 0.0126953125 1
vt 0.17400390625 0.847896875
vt 0.1630859375 0.847896875
vt 0.1630859375 0.738521875
vt 0.17400390625 0.738521875
vt 0.0126953125 0.738521875
vt 0.0126953125 0.847896875
vt 0.0017773437499999933 0.847896875
vt 0.0017773437499999933 0.738521875
vt 0.0126953125 0.847896875
vt 0.1630859375 0.847896875
vt 0.1630859375 0.85595
vt 0.0126953125 0.85595
vt 0.1630859375 0.73046875
vt 0.1630859375 0.738521875
vt 0.0126953125 0.738521875
vt 0.0126953125 0.73046875
vt 0.3203125 0.59375
vt 0.3359375 0.59375
vt 0.3359375 0.609375
vt 0.3203125 0.609375
vt 0.34375 0.609375
vt 0.34375 0.59375
vt 0.359375 0.59375
vt 0.359375 0.609375
vt 0.3671875 0.609375
vt 0.3671875 0.59375
vt 0.3828125 0.59375
vt 0.3828125 0.609375
vt 0.390625 0.59375
vt 0.40625 0.59375
vt 0.40625 0.609375
vt 0.390625 0.609375
vt 0.1630859375 0.847896875
vt 0.17399391054242158 0.8483704457417116
vt 0.1630859375 0.8559499729047977
vt 0.0126953125 0.847896875
vt 0.0126953125 0.8559499729047977
vt 0.0017873394575784046 0.8483704457417116
vt 0.1630859375 0.738521875
vt 0.1630859375 0.7304687770952023
vt 0.17399391054242158 0.7380483042582884
vt 0.0126953125 0.738521875
vt 0.0017873394575784046 0.7380483042582884
vt 0.0126953125 0.7304687770952023
vt 0.1630859375 0.882571875
vt 0.16343523451686945 0.8745263559080916
vt 0.17400418576341667 0.882571875
vt 0.012695312499999986 0.882571875
vt 0.0017770642365833034 0.882571875
vt 0.012346015483130537 0.8745263559080916
vt 0.1630859375 0.991946875
vt 0.17400418576341667 0.991946875
vt 0.16343523451686945 0.9999923940919084
vt 0.0126953125 0.991946875
vt 0.012346015483130551 0.9999923940919084
vt 0.0017770642365833172 0.991946875
vn 1 0 0
vn -1 0 0
vn 0 1 0
vn 0 -1 0
vn 0 0 1
vn 0 0 -1
vn 0.1788854381999832 0.9838699100999075 0
vn -0.1788854381999832 0.9838699100999075 0
vn 0 0.970142500145332 0.242535625036333
vn 0 0.970142500145332 -0.242535625036333
vn 0.1788854381999832 -0.9838699100999075 0
vn -0.1788854381999832 -0.9838699100999075 0
vn 0 -0.970142500145332 0.242535625036333
vn 0 -0.970142500145332 -0.242535625036333
vn 0.5881716976750462 0 -0.8087360843031886
vn 0.5881716976750462 0 0.8087360843031886
vn -0.5881716976750462 0 -0.8087360843031886
vn -0.5881716976750462 0 0.8087360843031886
vn 0.17370793308317894 -0.9553936319574843 0.23884840798937107
vn -0.17370793308317894 -0.9553936319574843 0.23884840798937107
vn 0.17370793308317894 -0.9553936319574843 -0.23884840798937107
vn -0.17370793308317894 -0.9553936319574843 -0.23884840798937107
vn 0.17370793308317894 0.9553936319574843 0.23884840798937107
vn -0.17370793308317894 0.9553936319574843 0.23884840798937107
vn 0.17370793308317894 0.9553936319574843 -0.23884840798937107
vn -0.17370793308317894 0.9553936319574843 -0.23884840798937107
usemtl m_95654248-c438-bb39-0d9c-62460ca3b739
f 44/113/31 42/114/31 41/115/31 43/116/31
f 37/117/32 38/118/32 40/119/32 39/120/32
f 29/121/33 30/122/33 32/123/33 31/124/33
f 36/125/34 34/126/34 33/127/34 35/128/34
f 49/129/35 50/130/35 52/131/35 51/132/35
f 48/133/36 46/134/36 45/135/36 47/136/36
f 30/137/37 29/138/37 42/139/37 44/140/37
f 38/141/38 31/142/38 32/143/38 40/144/38
f 50/145/39 29/146/39 31/147/39 52/148/39
f 32/149/40 30/150/40 46/151/40 48/152/40
f 41/153/41 33/154/41 34/155/41 43/156/41
f 36/157/42 35/158/42 37/159/42 39/160/42
f 35/161/43 33/162/43 49/163/43 51/164/43
f 45/165/44 34/166/44 36/167/44 47/168/44
f 43/169/45 45/170/45 46/171/45 44/172/45
f 50/173/46 49/174/46 41/175/46 42/176/46
f 48/177/47 47/178/47 39/179/47 40/180/47
f 37/181/48 51/182/48 52/183/48 38/184/48
f 33/185/49 41/186/49 49/187/49
f 35/188/50 51/189/50 37/190/50
f 34/191/51 45/192/51 43/193/51
f 36/194/52 39/195/52 47/196/52
f 29/197/53 50/198/53 42/199/53
f 31/200/54 38/201/54 52/202/54
f 30/203/55 44/204/55 46/205/55
f 32/206/56 48/207/56 40/208/56
o lock
v 0.109375 0.515625 -0.48828125
v 0.109375 0.515625 -0.54296875
v -0.109375 0.515625 -0.48828125
v -0.109375 0.515625 -0.54296875
v 0.109375 0.203125 -0.48828125
v 0.109375 0.203125 -0.54296875
v -0.109375 0.203125 -0.48828125
v -0.109375 0.203125 -0.54296875
v -0.125 0.2421875 -0.48828125
v -0.125 0.4765625 -0.48828125
v -0.125 0.2421875 -0.54296875
v -0.125 0.4765625 -0.54296875
v 0.125 0.2421875 -0.48828125
v 0.125 0.4765625 -0.48828125
v 0.125 0.2421875 -0.54296875
v 0.125 0.4765625 -0.54296875
v 0.109375 0.2421875 -0.546875
v 0.109375 0.4765625 -0.546875
v -0.109375 0.2421875 -0.546875
v -0.109375 0.4765625 -0.546875
v 0.109375 0.2421875 -0.484375
v 0.109375 0.4765625 -0.484375
v -0.109375 0.2421875 -0.484375
v -0.109375 0.4765625 -0.484375
vt 0.39794921875 0.7056781249999999
vt 0.39111328125 0.7056781249999999
vt 0.39111328125 0.6763812499999999
vt 0.39794921875 0.6763812499999999
vt 0.31201171875 0.5748187499999999
vt 0.31201171875 0.6041156249999999
vt 0.30517578125 0.6041156249999999
vt 0.30517578125 0.5748187499999999
vt 0.40625 0.921875
vt 0.40625 0.9296875
vt 0.375 0.9296875
vt 0.375 0.921875
vt 0.375 0.90625
vt 0.40625 0.90625
vt 0.40625 0.9140625
vt 0.375 0.9140625
vt 0.1484375 0.58298359375
vt 0.1484375 0.61228046875
vt 0.12109375 0.61228046875
vt 0.12109375 0.58298359375
vt 0.1953125 0.61228046875
vt 0.16796875 0.61228046875
vt 0.16796875 0.58298359375
vt 0.1953125 0.58298359375
vt 0.39794921875 0.7109375
vt 0.39111328125 0.7109375
vt 0.39111328125 0.7056781249999999
vt 0.39794921875 0.7056781249999999
vt 0.31201171875 0.6041156249999999
vt 0.31201171875 0.609375
vt 0.30517578125 0.609375
vt 0.30517578125 0.6041156249999999
vt 0.1484375 0.61228046875
vt 0.1484375 0.6171875
vt 0.12109375 0.6171875
vt 0.12109375 0.61228046875
vt 0.1953125 0.6171875
vt 0.16796875 0.6171875
vt 0.16796875 0.61228046875
vt 0.1953125 0.61228046875
vt 0.39111328125 0.6763812499999999
vt 0.39111328125 0.671121875
vt 0.39794921875 0.671121875
vt 0.39794921875 0.6763812499999999
vt 0.30517578125 0.569559375
vt 0.31201171875 0.569559375
vt 0.31201171875 0.5748187499999999
vt 0.30517578125 0.5748187499999999
vt 0.12109375 0.5780765625
vt 0.1484375 0.5780765625
vt 0.1484375 0.58298359375
vt 0.12109375 0.58298359375
vt 0.16796875 0.58298359375
vt 0.16796875 0.5780765625
vt 0.1953125 0.5780765625
vt 0.1953125 0.58298359375
vt 0.16595546875 0.58298359375
vt 0.16796875 0.58298359375
vt 0.16796875 0.61228046875
vt 0.16595546875 0.61228046875
vt 0.1484375 0.61228046875
vt 0.1484375 0.58298359375
vt 0.15045078125 0.58298359375
vt 0.15045078125 0.61228046875
vt 0.1953125 0.61228046875
vt 0.1953125 0.58298359375
vt 0.19732578125 0.58298359375
vt 0.19732578125 0.61228046875
vt 0.11908046875 0.58298359375
vt 0.12109375 0.58298359375
vt 0.12109375 0.61228046875
vt 0.11908046875 0.61228046875
vt 0.14855546875 0.578078125
vt 0.15045078125 0.58298359375
vt 0.1484375 0.58298359375
vt 0.12097578125 0.578078125
vt 0.12109375 0.58298359375
vt 0.11908046875 0.58298359375
vt 0.16796875 0.5780765625
vt 0.16796875 0.5829834495257225
vt 0.16595605066433883 0.5829350472961182
vt 0.1953125 0.5780765625
vt 0.19732519933566117 0.5829350472961182
vt 0.1953125 0.5829834495257225
vt 0.14855546875 0.61718671875
vt 0.1484375 0.61228046875
vt 0.15045078125 0.61228046875
vt 0.12097578125 0.61718671875
vt 0.11908046875 0.61228046875
vt 0.12109375 0.61228046875
vt 0.16796875 0.6171875
vt 0.16595605047911086 0.6123282264767489
vt 0.16796875 0.6122798319500524
vt 0.1953125 0.6171875
vt 0.1953125 0.6122798319500524
vt 0.19732519952088914 0.6123282264767489
vn 1 0 0
vn -1 0 0
vn 0 1 0
vn 0 -1 0
vn 0 0 1
vn 0 0 -1
vn 0.9284766908852593 0.3713906763541037 0
vn -0.9284766908852593 0.3713906763541037 0
vn 0 0.09950371902099892 0.9950371902099892
vn 0 0.09950371902099892 -0.9950371902099892
vn 0.9284766908852593 -0.3713906763541037 0
vn -0.9284766908852593 -0.3713906763541037 0
vn 0 -0.09950371902099892 0.9950371902099892
vn 0 -0.09950371902099892 -0.9950371902099892
vn 0.24253562503633297 0 -0.9701425001453319
vn 0.24253562503633297 0 0.9701425001453319
vn -0.24253562503633297 0 -0.9701425001453319
vn -0.24253562503633297 0 0.9701425001453319
vn 0.2414022747926338 -0.09656090991705352 0.9656090991705352
vn -0.2414022747926338 -0.09656090991705352 0.9656090991705352
vn 0.2414022747926338 -0.09656090991705352 -0.9656090991705352
vn -0.2414022747926338 -0.09656090991705352 -0.9656090991705352
vn 0.2414022747926338 0.09656090991705352 0.9656090991705352
vn -0.2414022747926338 0.09656090991705352 0.9656090991705352
vn 0.2414022747926338 0.09656090991705352 -0.9656090991705352
vn -0.2414022747926338 0.09656090991705352 -0.9656090991705352
usemtl m_95654248-c438-bb39-0d9c-62460ca3b739
f 68/209/57 66/210/57 65/211/57 67/212/57
f 61/213/58 62/214/58 64/215/58 63/216/58
f 53/217/59 54/218/59 56/219/59 55/220/59
f 60/221/60 58/222/60 57/223/60 59/224/60
f 73/225/61 74/226/61 76/227/61 75/228/61
f 72/229/62 70/230/62 69/231/62 71/232/62
f 54/233/63 53/234/63 66/235/63 68/236/63
f 62/237/64 55/238/64 56/239/64 64/240/64
f 74/241/65 53/242/65 55/243/65 76/244/65
f 56/245/66 54/246/66 70/247/66 72/248/66
f 65/249/67 57/250/67 58/251/67 67/252/67
f 60/253/68 59/254/68 61/255/68 63/256/68
f 59/257/69 57/258/69 73/259/69 75/260/69
f 69/261/70 58/262/70 60/263/70 71/264/70
f 67/265/71 69/266/71 70/267/71 68/268/71
f 74/269/72 73/270/72 65/271/72 66/272/72
f 72/273/73 71/274/73 63/275/73 64/276/73
f 61/277/74 75/278/74 76/279/74 62/280/74
f 57/281/75 65/282/75 73/283/75
f 59/284/76 75/285/76 61/286/76
f 58/287/77 69/288/77 67/289/77
f 60/290/78 63/291/78 71/292/78
f 53/293/79 74/294/79 66/295/79
f 55/296/80 62/297/80 76/298/80
f 54/299/81 68/300/81 70/301/81
f 56/302/82 72/303/82 64/304/82