# Made in Blockbench 4.12.4
mtllib rock01.mtl

o sphere
v 0 -0.375 0
v 5.551115123125783e-16 0.4976873499232389 -0.1048277457272977
v 0.14062499999999994 0.25000000000000006 0.2455127018922193
v 0.24999999999999997 -0.12499999999999989 0.43301270189221935
v 0.39062499999999856 0.2667174667954177 -0.20049860381856982
v 0.49999999999999856 -0.07022229946022424 -0.39184032000111435
v 0.24999999999999994 0.4324242538132129 -0.6005501764142018
v 0.24999999999999994 -0.02951551244242892 -0.7918918925967462
v -0.1034367299189281 0.3629828486562532 -0.6005501764142016
v -0.2986609109627923 -0.05567675864312463 -0.7918918925967449
v -0.4071094977239756 0.3033048923161634 -2.0816681711721685e-16
v -0.6184186285943252 -0.14984900120216094 -2.0816681711721685e-16
v -0.18053255096481352 0.19765032688098882 0.43301270189221824
v -0.3918416818351631 -0.13050356663733553 0.43301270189221824
v 0.5488281249999989 0.03981433885813507 -0.4440177841043862
v 0.42382812499999956 0.060167732367032725 -0.6440435704022022
v 0.4941406249999989 0.20828422198595603 -0.34834692601311396
v 0.42382812499999956 0.2911376154948536 -0.54837271231093
v 0.4726562499999996 -0.14731310408310075 0.227279660941704
v 0.5976562499999989 -0.11992425381321292 -0.18514685000496287
v 0.41796874999999956 0.04018689591689922 0.13352966094170396
v 0.5429687499999989 0.04854562931460804 -0.0894759919136906
v 0.5263671874999991 -0.30526958407617366 -0.08216027589900067
v 0.46386718749999944 -0.31896400921111756 0.12405297957433276
v 0.3124999999999996 -0.298805574865056 0.22679944641888594
v 0.4374999999999989 -0.27141672459516814 -0.18562706452778094
v 0.12499999999999976 -0.47003704991003736 0.006862063648517501
v -0.6964471091869473 -0.1723491691813735 0.1082531754730544
v -0.5831586358073662 -0.1626764518989608 0.3247595264191636
v -0.5907925437517725 0.05422777757778868 0.1082531754730544
v -0.47750407037219145 0.0014004948602013845 0.3247595264191636
vt 0.3016777598921943 0.5922424628413849
vt 0.40496355916106647 0.6676650295039454
vt 0.2951730672291163 0.704933177289262
vt 0.019774188586616906 0.9933757705348119
vt 0.00164705427440405 0.9423375116567626
vt 0.109375 0.9493421875
vt 0.0825347157513349 0.9902343772788306
vt 0.515625 0.4195148946301065
vt 0.4076705282143642 0.4195148946301065
vt 0.44390046837377495 0.34375
vt 0.40496355916106647 0.6676650295039454
vt 0.4122498742103526 0.781249923130995
vt 0.29517123557784153 0.7049337990393716
vt 0.109375 0.640625
vt 0.109375 0.5902967561511804
vt 0.16752731988888142 0.5792797890947152
vt 0.1633204027239255 0.6389686351595307
vt 0.344764486160518 0.9418696895630275
vt 0.2393507637983887 0.9957215686791916
vt 0.13915694360818248 0.8508501512175239
vt 0.37687052139865146 0.8907755879322565
vt 0.44414395889865144 0.8309177754322565
vt 0.5048017713986515 0.9470318379322565
vt 0.48870288944328033 0.5781246691377506
vt 0.48775913944328037 0.45312935663775067
vt 0.6248966394432803 0.4460496691377507
vt 0.5770450769432803 0.5614184191377507
vt 0.36070091758260714 0.8054758970254385
vt 0.344764486160518 0.9418696895630275
vt 0.1391551493108959 0.850849356907604
vt 0.44414395889865144 0.8309177754322565
vt 0.603588693322199 0.8866344851585981
vt 0.5048013549896461 0.9470310408223827
vt 0.034461889884241065 0.5625
vt 0.004352514884241071 0.44118124999999997
vt 0.21740876488424107 0.4138921875
vt 0.20083688988424106 0.5369937499999999
vt 0.17884020127990807 0.6911734374999999
vt 0.36070091758260714 0.8054758970254385
vt 0.13915504589100613 0.8508493780884113
vt 0.603588693322199 0.8866344851585981
vt 0.65625 1
vt 0.5048001362868804 0.9470317859122966
vt 0.480609375 0.730532828736314
vt 0.46875 0.669168766236314
vt 0.52983125 0.671787516236314
vt 0.5416890625 0.7187297037363141
vt 0.05880864692085444 0.7144813091008071
vt 0.17884020127990807 0.6911734374999999
vt 0.13915551246154115 0.8508475008099101
vt 0.2108621348921943 0.568425275341385
vt 0.3016777598921943 0.5922424628413849
vt 0.2951730723921943 0.704933087841385
vt 0.6178277810522631 0.6751017401358691
vt 0.5642978289902747 0.59375
vt 0.7247646710097253 0.59375
vt 0.6982261601759767 0.6875
vt 0 0.8637827264030922
vt 0.05880864692085444 0.7144813091008071
vt 0.13915483662654404 0.8508463537702071
vt 0.625 0.3338179166158103
vt 0.625 0.3841448311124681
vt 0.59375 0.42096632899331565
vt 0.59375 0.3203125
vt 0.4098796911594389 1
vt 0.3506919088335217 1
vt 0.34375 0.96875
vt 0.46212524621354345 0.96875
vt 0.4380758337721998 0.5508650029593992
vt 0.43760336055671967 0.48836811097403576
vt 0.48775913944328037 0.45312935663775067
vt 0.48870289194138405 0.578125
vt 0.4494829404141043 0.6840163004185393
vt 0.453125 0.7408086866030913
vt 0.41224987914139377 0.78125
vt 0.40496355916106647 0.6676650295039454
vt 0.4065655227503101 0.51624493306754
vt 0.38965548736074834 0.567699317850352
vt 0.3016772299779087 0.5922426106715634
vt 0.33549589123311735 0.4893331668295987
vt 0.078125 0.38601918199282825
vt 0.078125 0.3320417558617289
vt 0.109375 0.296875
vt 0.109375 0.40482946065969316
vt 0 0.36345007237472504
vt 0 0.31312106806988704
vt 0.0625 0.30559490697117586
vt 0.0625 0.40625
vt 0.38965548736074834 0.567699317850352
vt 0.44129936978252005 0.6054103106603899
vt 0.404963358112455 0.6676648826918723
vt 0.3016777598921943 0.5922424628413849
vt 0.025835937500000003 0.8984375
vt 0.07970000000000001 0.901940625
vt 0.109375 0.9493421875
vt 0.001646875000000006 0.9423375
vt 0.33249886588205496 0.39525468750000003
vt 0.3712238339125556 0.370402918983454
vt 0.38207300911794506 0.4193382261651233
vt 0.3205331448234672 0.4624986475056643
vt 0 0.6439854137716193
vt 0.019160143876644657 0.609375
vt 0.0928604768943052 0.609375
vt 0.05341152699699309 0.65625
vt 0.28203480338205494 0.328125
vt 0.33249886588205496 0.39525468750000003
vt 0.32037386588205496 0.46339375000000005
vt 0.25073949088205494 0.3435765625
vt 0.5313383456754783 0.3578193463688789
vt 0.5313383456754783 0.25348832381055053
vt 0.5689732267603085 0.2421875
vt 0.5703125 0.4172375526203427
vt 0.25 0.4048165316623634
vt 0.24166153221519818 0.46675883578058674
vt 0.2007316860894368 0.5377752398146005
vt 0.21740876488424107 0.4138921875
vt 0.09858395127990809 0.6757171875
vt 0.1585995762799081 0.6640625
vt 0.17884020127990807 0.6911734374999999
vt 0.05880895127990808 0.71448125
vt 0.5417801049418293 0.7190901185577498
vt 0.52983125 0.671787516236314
vt 0.5813853525602983 0.6924485566562321
vt 0.6052834146227439 0.7870522390059808
vt 0.480609375 0.730532828736314
vt 0.5419731789144983 0.7186748006794692
vt 0.6030981666484987 0.7887840841511524
vt 0.4803690026279896 0.8125
vn 0.5390289178176301 0.7744523325180953 0.3311667411042912
vn 0.8699271152834768 0.39880137600161847 0.29014526808787483
vn 0.5856563024141498 -0.8009702435352318 0.12431156186653616
vn 0.5309786492799786 0.8324905530077064 0.15818076103538167
vn 0.761222311305139 0.48898930448940864 -0.42594606802531554
vn 0.32048155193621614 -0.9011357143925413 -0.29196917493940866
vn -0.18802988826988898 0.957017915851755 -0.2208199942395985
vn -0.018244072088501293 0.38261973970798663 -0.9237257648346843
vn 0.0439003517573345 -0.9206903525156287 -0.3878170108443281
vn -0.45625432225942375 0.8782125937243938 -0.14343860583353066
vn -0.8191733731398342 0.5056777076110538 -0.2706382100959432
vn -0.3319019405078972 -0.9116297239302281 -0.24243008958045745
vn -0.31769566711961705 0.8694259867149784 0.3783753648404031
vn -0.8248217799100541 0.3846207125850954 0.41441035078354843
vn -0.3340476898713026 -0.9175234192089939 0.21578442041695875
vn 0.16905470637726716 0.8355025567544259 0.5228345664820887
vn -1.739349729094711e-15 1.1200247408128272e-15 1
vn 0.007441558359681549 -0.8678558192883719 0.4967604051617725
vn 0.8025647105977592 -0.07552900374282774 0.5917645265616645
vn 0.6900130613684877 -0.5365464142836782 -0.48579823019460977
vn 0.5071008279878338 0.3298297754550524 -0.7962795171780594
vn 0.6060163903065845 0.787368684015434 0.11311361594247266
vn 0.6181314169825175 0.4882976475007715 0.6160186350950737
vn -0.2171178811896195 -0.9674431785135601 -0.1300519973522522
vn 0.8474036377819678 0.44207476850014465 -0.2940696749571966
vn 0.6505300900267106 0.6522448156685441 0.38908521226506004
vn 0.939289225734793 -0.2108748069512632 0.2706798223211337
vn 0.4491503573820581 -0.4772313373839319 0.7553239087188445
vn 0.39843229850939793 -0.7139358423079538 -0.5758014558617846
vn -0.04285901247335147 -0.7702936792041498 0.6362473990736179
vn -0.26950452276135284 -0.4171434033302056 -0.8679623801002375
vn -0.7889283769884636 0.3678833439255147 -0.4921929105996248
vn 0.1985672922143793 -0.978236817619207 -0.060197667038647804
vn -0.5064855964385137 0.3261428046283306 0.7981874539163653
vn -0.5993602262938439 0.6469072469225522 0.47146403151892335
usemtl m_4fac5618-0078-e5c2-1fb6-74e57d26a6bd
f 3/1/1 5/2/1 2/3/1
f 21/4/2 19/5/2 20/6/2 22/7/2
f 26/8/3 25/9/3 27/10/3
f 5/11/4 7/12/4 2/13/4
f 17/14/5 15/15/5 16/16/5 18/17/5
f 8/18/6 6/19/6 1/20/6
f 7/21/7 9/22/7 2/23/7
f 7/24/8 8/25/8 10/26/8 9/27/8
f 10/28/9 8/29/9 1/30/9
f 9/31/10 11/32/10 2/33/10
f 9/34/11 10/35/11 12/36/11 11/37/11
f 12/38/12 10/39/12 1/40/12
f 11/41/13 13/42/13 2/43/13
f 30/44/14 28/45/14 29/46/14 31/47/14
f 14/48/15 12/49/15 1/50/15
f 13/51/16 3/52/16 2/53/16
f 13/54/17 14/55/17 4/56/17 3/57/17
f 4/58/18 14/59/18 1/60/18
f 15/61/19 17/62/19 5/63/19 6/64/19
f 16/65/20 15/66/20 6/67/20 8/68/20
f 18/69/21 16/70/21 8/71/21 7/72/21
f 17/73/22 18/74/22 7/75/22 5/76/22
f 19/77/23 21/78/23 3/79/23 4/80/23
f 23/81/24 24/82/24 25/83/24 26/84/24
f 22/85/25 20/86/25 6/87/25 5/88/25
f 21/89/26 22/90/26 5/91/26 3/92/26
f 24/93/27 23/94/27 20/95/27 19/96/27
f 25/97/28 24/98/28 19/99/28 4/100/28
f 23/101/29 26/102/29 6/103/29 20/104/29
f 27/105/30 25/106/30 4/107/30 1/108/30
f 26/109/31 27/110/31 1/111/31 6/112/31
f 28/113/32 30/114/32 11/115/32 12/116/32
f 29/117/33 28/118/33 12/119/33 14/120/33
f 31/121/34 29/122/34 14/123/34 13/124/34
f 30/125/35 31/126/35 13/127/35 11/128/35