# Made in Blockbench 4.12.4
mtllib sign.mtl

o beveled_cuboid
v 0.765625 1.3125 0.0546875
v 0.765625 1.3125 -0.0546875
v -0.765625 1.3125 0.0546875
v -0.765625 1.3125 -0.0546875
v 0.765625 0.4375 0.0546875
v 0.765625 0.4375 -0.0546875
v -0.765625 0.4375 0.0546875
v -0.765625 0.4375 -0.0546875
v -0.875 0.546875 0.0546875
v -0.875 1.203125 0.0546875
v -0.875 0.546875 -0.0546875
v -0.875 1.203125 -0.0546875
v 0.875 0.546875 0.0546875
v 0.875 1.203125 0.0546875
v 0.875 0.546875 -0.0546875
v 0.875 1.203125 -0.0546875
v 0.765625 0.546875 -0.0625
v 0.765625 1.203125 -0.0625
v -0.765625 0.546875 -0.0625
v -0.765625 1.203125 -0.0625
v 0.765625 0.546875 0.0625
v 0.765625 1.203125 0.0625
v -0.765625 0.546875 0.0625
v -0.765625 1.203125 0.0625
vt 0.109375 0.5
vt 0.078125 0.5
vt 0.078125 0.328125
vt 0.109375 0.328125
vt 0.15625 0.328125
vt 0.15625 0.5
vt 0.125 0.5
vt 0.125 0.328125
vt 0.84375 0.75
vt 0.84375 0.78125
vt 0.453125 0.78125
vt 0.453125 0.75
vt 0.46875 0.96875
vt 0.859375 0.96875
vt 0.859375 1
vt 0.46875 1
vt 0.4140625 0.8085234375
vt 0.4140625 0.9725859375
vt 0.03125 0.9725859375
vt 0.03125 0.8085234375
vt 0.4140625 0.7225859375
vt 0.03125 0.7225859375
vt 0.03125 0.5585234375
vt 0.4140625 0.5585234375
vt 0.578125 0.953125
vt 0.546875 0.953125
vt 0.546875 0.921875
vt 0.578125 0.921875
vt 0.578125 0.875
vt 0.578125 0.90625
vt 0.546875 0.90625
vt 0.546875 0.875
vt 0.4140625 0.9725859375
vt 0.4140625 1
vt 0.03125 1
vt 0.03125 0.9725859375
vt 0.4140625 0.75
vt 0.03125 0.75
vt 0.03125 0.7225859375
vt 0.4140625 0.7225859375
vt 0.546875 0.859375
vt 0.546875 0.828125
vt 0.578125 0.828125
vt 0.578125 0.859375
vt 0.546875 0.703125
vt 0.578125 0.703125
vt 0.578125 0.734375
vt 0.546875 0.734375
vt 0.03125 0.7811109375
vt 0.4140625 0.7811109375
vt 0.4140625 0.8085234375
vt 0.03125 0.8085234375
vt 0.03125 0.5585234375
vt 0.03125 0.5311109375
vt 0.4140625 0.5311109375
vt 0.4140625 0.5585234375
vt 0.0038359374999999973 0.5585234375
vt 0.03125 0.5585234375
vt 0.03125 0.7225859375
vt 0.0038359374999999973 0.7225859375
vt 0.4140625 0.9725859375
vt 0.4140625 0.8085234375
vt 0.4414765625 0.8085234375
vt 0.4414765625 0.9725859375
vt 0.4140625 0.7225859375
vt 0.4140625 0.5585234375
vt 0.4414765625 0.5585234375
vt 0.4414765625 0.7225859375
vt 0.0038359374999999973 0.8085234375
vt 0.03125 0.8085234375
vt 0.03125 0.9725859375
vt 0.0038359374999999973 0.9725859375
vt 0.41420156249999995 0.781109375
vt 0.4414765625 0.8085234375
vt 0.4140625 0.8085234375
vt 0.03111093750000002 0.781109375
vt 0.03125 0.8085234375
vt 0.0038359374999999973 0.8085234375
vt 0.03125 0.5311109375
vt 0.03125 0.5585253527068362
vt 0.0038362902022983647 0.5583862919959787
vt 0.4140625 0.5311109375
vt 0.44147620979770164 0.5583862919959787
vt 0.4140625 0.5585253527068362
vt 0.41420156249999995 0.9999984375
vt 0.4140625 0.9725859375
vt 0.4414765625 0.9725859375
vt 0.03111093750000002 0.9999984375
vt 0.0038359374999999973 0.9725859375
vt 0.03125 0.9725859375
vt 0.03125 0.75
vt 0.0038362902425064793 0.7227262159101105
vt 0.03125 0.72258714727306
vt 0.4140625 0.75
vt 0.4140625 0.72258714727306
vt 0.4414762097574935 0.7227262159101105
vn 1 0 0
vn -1 0 0
vn 0 1 0
vn 0 -1 0
vn 0 0 1
vn 0 0 -1
vn 0.7071067811865476 0.7071067811865476 0
vn -0.7071067811865476 0.7071067811865476 0
vn 0 0.07124704998790964 0.997458699830735
vn 0 0.07124704998790964 -0.997458699830735
vn 0.7071067811865476 -0.7071067811865476 0
vn -0.7071067811865476 -0.7071067811865476 0
vn 0 -0.07124704998790964 0.997458699830735
vn 0 -0.07124704998790964 -0.997458699830735
vn 0.07124704998790965 0 -0.997458699830735
vn 0.07124704998790965 0 0.997458699830735
vn -0.07124704998790965 0 -0.997458699830735
vn -0.07124704998790965 0 0.997458699830735
vn 0.07106690545187015 -0.07106690545187015 0.9949366763261822
vn -0.07106690545187015 -0.07106690545187015 0.9949366763261822
vn 0.07106690545187015 -0.07106690545187015 -0.9949366763261822
vn -0.07106690545187015 -0.07106690545187015 -0.9949366763261822
vn 0.07106690545187015 0.07106690545187015 0.9949366763261822
vn -0.07106690545187015 0.07106690545187015 0.9949366763261822
vn 0.07106690545187015 0.07106690545187015 -0.9949366763261822
vn -0.07106690545187015 0.07106690545187015 -0.9949366763261822
usemtl m_2f0d468d-f2a7-0905-ce4d-b0e3f289f0a1
f 16/1/1 14/2/1 13/3/1 15/4/1
f 9/5/2 10/6/2 12/7/2 11/8/2
f 1/9/3 2/10/3 4/11/3 3/12/3
f 8/13/4 6/14/4 5/15/4 7/16/4
f 21/17/5 22/18/5 24/19/5 23/20/5
f 20/21/6 18/22/6 17/23/6 19/24/6
f 2/25/7 1/26/7 14/27/7 16/28/7
f 10/29/8 3/30/8 4/31/8 12/32/8
f 22/33/9 1/34/9 3/35/9 24/36/9
f 4/37/10 2/38/10 18/39/10 20/40/10
f 13/41/11 5/42/11 6/43/11 15/44/11
f 8/45/12 7/46/12 9/47/12 11/48/12
f 7/49/13 5/50/13 21/51/13 23/52/13
f 17/53/14 6/54/14 8/55/14 19/56/14
f 15/57/15 17/58/15 18/59/15 16/60/15
f 22/61/16 21/62/16 13/63/16 14/64/16
f 20/65/17 19/66/17 11/67/17 12/68/17
f 9/69/18 23/70/18 24/71/18 10/72/18
f 5/73/19 13/74/19 21/75/19
f 7/76/20 23/77/20 9/78/20
f 6/79/21 17/80/21 15/81/21
f 8/82/22 11/83/22 19/84/22
f 1/85/23 22/86/23 14/87/23
f 3/88/24 10/89/24 24/90/24
f 2/91/25 16/92/25 18/93/25
f 4/94/26 20/95/26 12/96/26
o cuboid
v 0.5625 0.375 0.125
v 0.5625 0.375 -0.125
v 0.5625 0 0.125
v 0.5625 0 -0.125
v 0.4375 0.375 0.125
v 0.4375 0.375 -0.125
v 0.4375 0 0.125
v 0.4375 0 -0.125
v 0.5625 0.5 0
v 0.5625 0 0
v 0.4375 0 0
v 0.4375 0.5 0
v 0.4375 0.41919417382415924 -0.12231917382415922
v 0.4375 0.5441941738241592 -0.044194173824159216
v 0.5625 0.5441941738241592 -0.044194173824159216
v 0.5625 0.41919417382415924 -0.12231917382415922
v 0.5625 0.41919417382415924 0.12231917382415922
v 0.4375 0.5441941738241592 0.044194173824159216
v 0.5625 0.5441941738241592 0.044194173824159216
v 0.4375 0.41919417382415924 0.12231917382415922
vt 0.46875 0.44207656250000005
vt 0.5 0.44207656250000005
vt 0.5 0.5670765625
vt 0.46875 0.5358265625
vt 0.0625 0.45770156250000005
vt 0.03125 0.48895156250000005
vt 0.03125 0.36395156250000005
vt 0.0625 0.36395156250000005
vt 0.296875 0.46314999999999995
vt 0.296875 0.5
vt 0.265625 0.5
vt 0.265625 0.46314999999999995
vt 0.40625 0.5
vt 0.40625 0.46875
vt 0.4375 0.46875
vt 0.4375 0.5
vt 0.296875 0.35833125
vt 0.296875 0.45208125
vt 0.265625 0.45208125
vt 0.265625 0.35833125
vt 0.34375 0.45208125
vt 0.3125 0.45208125
vt 0.3125 0.35833125
vt 0.34375 0.35833125
vt 0.53125 0.5358265625
vt 0.5 0.5670765625
vt 0.5 0.44207656250000005
vt 0.53125 0.44207656250000005
vt 0.4375 0.4375
vt 0.4375 0.46875
vt 0.40625 0.46875
vt 0.40625 0.4375
vt 0 0.36395156250000005
vt 0.03125 0.36395156250000005
vt 0.03125 0.48895156250000005
vt 0 0.45770156250000005
vt 0.34375 0.46314999999999995
vt 0.34375 0.5
vt 0.3125 0.5
vt 0.3125 0.46314999999999995
vt 0.0202015625 0.5
vt 0.000670312499999999 0.46875
vt 0 0.45770156250000005
vt 0.03125 0.48895156250000005
vt 0.578125 0.65625
vt 0.546875 0.65625
vt 0.546875 0.640625
vt 0.578125 0.640625
vt 0.5305796875 0.546875
vt 0.5110484375 0.578125
vt 0.5 0.5670765625
vt 0.53125 0.5358265625
vt 0.34375 0.46314999999999995
vt 0.3125 0.46314999999999995
vt 0.3125 0.45208125
vt 0.34375 0.45208125
vt 0.4889515625 0.578125
vt 0.4694203125 0.546875
vt 0.46875 0.5358265625
vt 0.5 0.5670765625
vt 0.578125 0.625
vt 0.546875 0.625
vt 0.546875 0.609375
vt 0.578125 0.609375
vt 0.0618296875 0.46875
vt 0.0422984375 0.5
vt 0.03125 0.48895156250000005
vt 0.0625 0.45770156250000005
vt 0.296875 0.46314999999999995
vt 0.265625 0.46314999999999995
vt 0.265625 0.45208125
vt 0.296875 0.45208125
vn 1 0 0
vn -1 0 0
vn 0 0.52999894000318 0.847998304005088
vn 0 -1 0
vn 0 0 1
vn 0 0 -1
vn 1 0 0
vn 0 -1 0
vn -1 0 0
vn 0 0.52999894000318 -0.847998304005088
vn -1 0 0
vn 0 0.7071067811865474 0.7071067811865478
vn 1 0 0
vn 0 0.060548874541627926 -0.9981652337122059
vn 1 0 0
vn 0 0.7071067811865474 -0.7071067811865478
vn -1 0 0
vn 0 0.060548874541627926 0.9981652337122059
usemtl m_2f0d468d-f2a7-0905-ce4d-b0e3f289f0a1
f 27/97/27 34/98/27 33/99/27 25/100/27
f 29/101/28 36/102/28 35/103/28 31/104/28
f 41/105/29 43/106/29 42/107/29 44/108/29
f 31/109/30 35/110/30 34/111/30 27/112/30
f 27/113/31 25/114/31 29/115/31 31/116/31
f 30/117/32 26/118/32 28/119/32 32/120/32
f 26/121/33 33/122/33 34/123/33 28/124/33
f 28/125/34 34/126/34 35/127/34 32/128/34
f 32/129/35 35/130/35 36/131/35 30/132/35
f 37/133/36 38/134/36 39/135/36 40/136/36
f 38/137/37 37/138/37 30/139/37 36/140/37
f 39/141/38 38/142/38 36/143/38 33/144/38
f 40/145/39 39/146/39 33/147/39 26/148/39
f 37/149/40 40/150/40 26/151/40 30/152/40
f 43/153/41 41/154/41 25/155/41 33/156/41
f 42/157/42 43/158/42 33/159/42 36/160/42
f 44/161/43 42/162/43 36/163/43 29/164/43
f 41/165/44 44/166/44 29/167/44 25/168/44
o cuboid
v -0.5625 0.375 0.125
v -0.5625 0.375 -0.125
v -0.5625 0 0.125
v -0.5625 0 -0.125
v -0.4375 0.375 0.125
v -0.4375 0.375 -0.125
v -0.4375 0 0.125
v -0.4375 0 -0.125
v -0.5625 0.5 0
v -0.5625 0 0
v -0.4375 0 0
v -0.4375 0.5 0
v -0.4375 0.41919417382415924 -0.12231917382415922
v -0.4375 0.5441941738241592 -0.044194173824159216
v -0.5625 0.5441941738241592 -0.044194173824159216
v -0.5625 0.41919417382415924 -0.12231917382415922
v -0.5625 0.41919417382415924 0.12231917382415922
v -0.4375 0.5441941738241592 0.044194173824159216
v -0.5625 0.5441941738241592 0.044194173824159216
v -0.4375 0.41919417382415924 0.12231917382415922
vt 0.5 0.9420765625
vt 0.5 0.8170765625
vt 0.53125 0.8170765625
vt 0.53125 0.9108265625
vt 0.5 0.5983265625
vt 0.5 0.7233265625
vt 0.46875 0.6920765625
vt 0.46875 0.5983265625
vt 0.203125 0.5
vt 0.171875 0.5
vt 0.171875 0.46314999999999995
vt 0.203125 0.46314999999999995
vt 0.359375 0.46875
vt 0.390625 0.46875
vt 0.390625 0.5
vt 0.359375 0.5
vt 0.203125 0.45208125
vt 0.171875 0.45208125
vt 0.171875 0.35833125
vt 0.203125 0.35833125
vt 0.25 0.35833125
vt 0.25 0.45208125
vt 0.21875 0.45208125
vt 0.21875 0.35833125
vt 0.5 0.8170765625
vt 0.5 0.9420765625
vt 0.46875 0.9108265625
vt 0.46875 0.8170765625
vt 0.390625 0.46875
vt 0.359375 0.46875
vt 0.359375 0.4375
vt 0.390625 0.4375
vt 0.5 0.7233265625
vt 0.5 0.5983265625
vt 0.53125 0.5983265625
vt 0.53125 0.6920765625
vt 0.25 0.5
vt 0.21875 0.5
vt 0.21875 0.46314999999999995
vt 0.25 0.46314999999999995
vt 0.53125 0.6920765625
vt 0.5305796875 0.703125
vt 0.5110484375 0.734375
vt 0.5 0.7233265625
vt 0.578125 0.796875
vt 0.578125 0.8125
vt 0.546875 0.8125
vt 0.546875 0.796875
vt 0.5 0.9420765625
vt 0.4889515625 0.953125
vt 0.4694203125 0.921875
vt 0.46875 0.9108265625
vt 0.25 0.45208125
vt 0.25 0.46314999999999995
vt 0.21875 0.46314999999999995
vt 0.21875 0.45208125
vt 0.53125 0.9108265625
vt 0.5305796875 0.921875
vt 0.5110484375 0.953125
vt 0.5 0.9420765625
vt 0.578125 0.671875
vt 0.578125 0.6875
vt 0.546875 0.6875
vt 0.546875 0.671875
vt 0.5 0.7233265625
vt 0.4889515625 0.734375
vt 0.4694203125 0.703125
vt 0.46875 0.6920765625
vt 0.203125 0.45208125
vt 0.203125 0.46314999999999995
vt 0.171875 0.46314999999999995
vt 0.171875 0.45208125
vn -1 0 0
vn 1 0 0
vn 0 0.52999894000318 0.847998304005088
vn 0 -1 0
vn 0 0 1
vn 0 0 -1
vn -1 0 0
vn 0 -1 0
vn 1 0 0
vn 0 0.52999894000318 -0.847998304005088
vn 1 0 0
vn 0 0.7071067811865474 0.7071067811865478
vn -1 0 0
vn 0 0.060548874541627926 -0.9981652337122059
vn -1 0 0
vn 0 0.7071067811865474 -0.7071067811865478
vn 1 0 0
vn 0 0.060548874541627926 0.9981652337122059
usemtl m_2f0d468d-f2a7-0905-ce4d-b0e3f289f0a1
f 53/169/45 54/170/45 47/171/45 45/172/45
f 55/173/46 56/174/46 49/175/46 51/176/46
f 62/177/47 63/178/47 61/179/47 64/180/47
f 54/181/48 55/182/48 51/183/48 47/184/48
f 49/185/49 45/186/49 47/187/49 51/188/49
f 48/189/50 46/190/50 50/191/50 52/192/50
f 54/193/51 53/194/51 46/195/51 48/196/51
f 55/197/52 54/198/52 48/199/52 52/200/52
f 56/201/53 55/202/53 52/203/53 50/204/53
f 59/205/54 58/206/54 57/207/54 60/208/54
f 50/209/55 57/210/55 58/211/55 56/212/55
f 56/213/56 58/214/56 59/215/56 53/216/56
f 53/217/57 59/218/57 60/219/57 46/220/57
f 46/221/58 60/222/58 57/223/58 50/224/58
f 45/225/59 61/226/59 63/227/59 53/228/59
f 53/229/60 63/230/60 62/231/60 56/232/60
f 56/233/61 62/234/61 64/235/61 49/236/61
f 49/237/62 64/238/62 61/239/62 45/240/62