# Made in Blockbench 4.12.4
mtllib tunnelentrance.mtl

o tube
v 0.2886751345948128 0.49999999999999994 0.5000000000000001
v 0.2886751345948128 0.5000000000000002 -0.4999999999999999
v 0.26116454968463004 0.45235026918962573 0.5000000000000001
v 0.26116454968463004 0.45235026918962595 -0.4999999999999999
v 0.5773502691896257 -2.0158643273760932e-17 0.5
v 0.5773502691896257 2.0188596165127037e-16 -0.5
v 0.5223290993692602 -2.352771824905361e-17 0.5
v 0.5223290993692602 1.985168866759777e-16 -0.5
v 0.2886751345948128 -0.5 0.4999999999999999
v 0.2886751345948128 -0.49999999999999983 -0.5000000000000001
v 0.26116454968463004 -0.45235026918962584 0.4999999999999999
v 0.26116454968463004 -0.4523502691896256 -0.5000000000000001
v -0.2886751345948129 -0.5 0.4999999999999999
v -0.2886751345948129 -0.4999999999999998 -0.5000000000000001
v -0.26116454968463015 -0.4523502691896258 0.4999999999999999
v -0.26116454968463015 -0.45235026918962556 -0.5000000000000001
v -0.5773502691896257 -1.615686751037485e-16 0.5
v -0.5773502691896257 6.04759298212828e-17 -0.5
v -0.5223290993692602 -1.5146145017787047e-16 0.5
v -0.5223290993692602 7.058315474716084e-17 -0.5
v -0.28867513459481314 0.4999999999999998 0.5000000000000001
v -0.28867513459481314 0.5 -0.4999999999999999
v -0.2611645496846303 0.45235026918962556 0.5000000000000001
v -0.2611645496846303 0.4523502691896258 -0.4999999999999999
v -0.3511751345948132 0.6166265877365271 0.5625000000000001
v 0.3511751345948128 0.6166265877365273 0.5625000000000001
v 0.3511751345948128 0.6166265877365277 -0.5624999999999999
v -0.3511751345948132 0.6166265877365275 -0.5624999999999999
v 0.7023502691896257 -2.559098886039913e-17 0.5625
v 0.7023502691896257 2.242091916802611e-16 -0.5625
v -0.7023502691896257 -1.9855377513392092e-16 0.5625
v -0.7023502691896257 5.1246405406739297e-17 -0.5625
v -0.3511751345948129 -0.6166265877365275 0.5624999999999999
v -0.3511751345948129 -0.6166265877365271 -0.5625000000000001
v 0.3511751345948128 -0.6166265877365276 0.5624999999999999
v 0.3511751345948128 -0.6166265877365272 -0.5625000000000001
vt 0.203125 0.5078125
vt 0.2890625 0.5078125
vt 0.2890625 0.6484375
vt 0.203125 0.6484375
vt 0.484375 0.8671875
vt 0.421875 0.8671875
vt 0.421875 0.7421875
vt 0.484375 0.7421875
vt 0.13414917136758137 0.9657509965555232
vt 0.1667952651175814 0.9092072465555232
vt 0.17367260886758137 0.9092072465555232
vt 0.13758823386758137 0.9717072465555232
vt 0.2625872181652185 0.6806316412342446
vt 0.2986715931652185 0.7431316412342446
vt 0.2917942494152185 0.7431316412342446
vt 0.2591481556652185 0.6865878912342447
vt 0.09375 0.5
vt 0.1796875 0.5
vt 0.1796875 0.640625
vt 0.09375 0.640625
vt 0.484375 1
vt 0.421875 1
vt 0.421875 0.875
vt 0.484375 0.875
vt 0.16684315037546057 0.9083853022358747
vt 0.14118812772837872 0.848345457847552
vt 0.14531433291739823 0.8428428679410157
vt 0.17367121030257093 0.909207162739521
vt 0.2986729162833532 0.74313041917739
vt 0.27031675731149996 0.809495020942967
vt 0.2661904925556802 0.8039924757040537
vt 0.29184486525350783 0.7439523535966059
vt 0 0.65625
vt 0.0859375 0.65625
vt 0.0859375 0.796875
vt 0 0.796875
vt 0.4140625 1
vt 0.3515625 1
vt 0.3515625 0.875
vt 0.4140625 0.875
vt 0.14118812772837872 0.848345457847552
vt 0.07636538272912079 0.8405430579826509
vt 0.07366275233955577 0.8342185142110572
vt 0.14531433291739823 0.8428428679410157
vt 0.27031675731149996 0.809495020942967
vt 0.19866527009884577 0.8181201503203939
vt 0.20136783202333483 0.8117955772924569
vt 0.2661904925556802 0.8039924757040537
vt 0 0.5078125
vt 0.0859375 0.5078125
vt 0.0859375 0.6484375
vt 0 0.6484375
vt 0.359375 0.546875
vt 0.296875 0.546875
vt 0.296875 0.421875
vt 0.359375 0.421875
vt 0.06885854636758132 0.8526634965555233
vt 0.036212452617581325 0.9092072465555233
vt 0.029335108867581325 0.9092072465555233
vt 0.06541948386758133 0.8467072465555233
vt 0.19041846816521868 0.8056316412342446
vt 0.15433409316521857 0.7431316412342447
vt 0.16121143691521855 0.7431316412342447
vt 0.19385753066521866 0.7996753912342446
vt 0.328125 0.7265625
vt 0.4140625 0.7265625
vt 0.4140625 0.8671875
vt 0.328125 0.8671875
vt 0.4609375 0.5859375
vt 0.3984375 0.5859375
vt 0.3984375 0.4609375
vt 0.4609375 0.4609375
vt 0.036212452617581325 0.9092072465555233
vt 0.06885854636758137 0.9657509965555232
vt 0.06541948386758137 0.9717072465555232
vt 0.029335108867581325 0.9092072465555233
vt 0.15433409316521857 0.7431316412342447
vt 0.1904184681652185 0.6806316412342446
vt 0.1938575306652185 0.6865878912342447
vt 0.16121143691521855 0.7431316412342447
vt 0.3046875 0.5546875
vt 0.390625 0.5546875
vt 0.390625 0.6953125
vt 0.3046875 0.6953125
vt 0.4609375 0.71875
vt 0.3984375 0.71875
vt 0.3984375 0.59375
vt 0.4609375 0.59375
vt 0.06885854636758137 0.9657509965555232
vt 0.13414917136758137 0.9657509965555232
vt 0.13758823386758137 0.9717072465555232
vt 0.06541948386758137 0.9717072465555232
vt 0.1904184681652185 0.6806316412342446
vt 0.2625872181652185 0.6806316412342446
vt 0.2591481556652185 0.6865878912342447
vt 0.1938575306652185 0.6865878912342447
vt 0.14715508837028637 0.9872975658195309
vt 0.05988312141632747 0.9968550928558306
vt 0.06584860572484608 0.9795630546737877
vt 0.1375884364657419 0.971706518424898
vt 0.18487895225547585 0.6554909760892942
vt 0.2721517256118962 0.6650411368073862
vt 0.262586389720541 0.6806329916300161
vt 0.19084589609581076 0.6727825106866254
vt 0.19110943103078862 0.9102522353236173
vt 0.14715508837028637 0.9872975658195309
vt 0.13758854867418985 0.9717067012942286
vt 0.17367260886758137 0.9092072465555232
vt 0.2721517256118962 0.6650411368073862
vt 0.31610940437780777 0.7420845639602222
vt 0.2986712703410403 0.7431310820861053
vt 0.2625872181652185 0.6806316412342446
vt 0.05988312141632747 0.9968550928558306
vt 0.00029681896921138207 0.9311478653186547
vt 0.017095431248531676 0.9263530405709566
vt 0.0658483124061616 0.9795639049111916
vt 0.12529684562219223 0.7212020083371704
vt 0.18487895225547585 0.6554909760892942
vt 0.19084582610878564 0.6727823078720693
vt 0.14209460652157316 0.7259947108570424
vt 0.00415946251548216 0.866711569885691
vt 0.07116906034800007 0.80859375
vt 0.0750262546263268 0.8264743481640034
vt 0.020263896011179477 0.8734778089044828
vt 0.14123066905346515 0.8084607068193413
vt 0.12529684562219223 0.7212020083371704
vt 0.14209595382903709 0.7259950952680312
vt 0.1554223917733728 0.7969221351043194
vt 0.07116906034800007 0.80859375
vt 0.15667453322363387 0.828507480122123
vt 0.14531402645019645 0.8428441629105192
vt 0.07502629986836803 0.8264745578902193
vt 0.28167804623975323 0.8238308101536127
vt 0.19617384508609015 0.84375
vt 0.20002994285873527 0.8258689458506436
vt 0.27031662405196855 0.8094948527947432
vt 0.15667453322363387 0.828507480122123
vt 0.19110943103078862 0.9102522353236173
vt 0.17367121030257093 0.909207162739521
vt 0.14531458503835618 0.8428434579858698
vt 0.31610940437780777 0.7420845639602222
vt 0.28167804623975323 0.8238308101536127
vt 0.27031675731149996 0.809495020942967
vt 0.298672668899098 0.7431309981541689
vn 0.8689603181411266 0.4948817692096491 1.0988582692875706e-16
vn -0.8660254037844386 -0.5000000000000001 -1.1102230246251568e-16
vn 0 -2.220446049250313e-16 1
vn 0 2.220446049250313e-16 -1
vn 0.8689603181411266 -0.4948817692096491 -1.0988582692875706e-16
vn -0.8660254037844387 0.5 1.1102230246251565e-16
vn 0 -2.220446049250313e-16 1
vn 0 2.220446049250313e-16 -1
vn -1.5807255629105627e-16 -1 -2.220446049250313e-16
vn 1.0627619885296541e-16 1 2.220446049250313e-16
vn 0 -2.220446049250313e-16 1
vn 0 2.220446049250313e-16 -1
vn -0.8689603181411265 -0.494881769209649 -1.0988582692875703e-16
vn 0.8660254037844388 0.5000000000000001 1.1102230246251568e-16
vn 0 -2.220446049250313e-16 1
vn 0 2.220446049250313e-16 -1
vn -0.8689603181411266 0.49488176920964866 1.0988582692875696e-16
vn 0.8660254037844388 -0.49999999999999967 -1.1102230246251558e-16
vn 0 -2.220446049250313e-16 1
vn 0 2.220446049250313e-16 -1
vn -3.161451125821125e-16 1 2.220446049250313e-16
vn 3.188285965588961e-16 -1 -2.220446049250313e-16
vn 0 -2.220446049250313e-16 1
vn 0 2.220446049250313e-16 -1
vn 1.4933035055667243e-16 -0.472347490483146 0.8814124166553784
vn 1.4933035055667243e-16 -0.47234749048314556 -0.8814124166553786
vn -0.4233657083303028 -0.24111109148158993 0.8732851301691432
vn -0.4333781718264419 -0.24681329162315183 -0.866756343652884
vn 0.4333781718264419 -0.24681329162315202 0.8667563436528838
vn 0.42336570833030296 -0.2411110914815894 -0.8732851301691434
vn 0.423365708330303 0.24111109148158968 0.8732851301691431
vn 0.43337817182644184 0.24681329162315221 -0.8667563436528838
vn 7.466517527833623e-17 0.4723474904831455 0.8814124166553786
vn 7.466517527833625e-17 0.47234749048314606 -0.8814124166553784
vn -0.4333781718264419 0.24681329162315183 0.866756343652884
vn -0.42336570833030285 0.24111109148158996 -0.8732851301691431
usemtl m_8f76133d-4e25-b2ea-eb68-5ac9983bed9a
f 26/1/1 29/2/1 30/3/1 27/4/1
f 4/5/2 8/6/2 7/7/2 3/8/2
f 3/9/3 7/10/3 5/11/3 1/12/3
f 2/13/4 6/14/4 8/15/4 4/16/4
f 29/17/5 35/18/5 36/19/5 30/20/5
f 8/21/6 12/22/6 11/23/6 7/24/6
f 7/25/7 11/26/7 9/27/7 5/28/7
f 6/29/8 10/30/8 12/31/8 8/32/8
f 35/33/9 33/34/9 34/35/9 36/36/9
f 12/37/10 16/38/10 15/39/10 11/40/10
f 11/41/11 15/42/11 13/43/11 9/44/11
f 10/45/12 14/46/12 16/47/12 12/48/12
f 33/49/13 31/50/13 32/51/13 34/52/13
f 16/53/14 20/54/14 19/55/14 15/56/14
f 15/57/15 19/58/15 17/59/15 13/60/15
f 14/61/16 18/62/16 20/63/16 16/64/16
f 31/65/17 25/66/17 28/67/17 32/68/17
f 20/69/18 24/70/18 23/71/18 19/72/18
f 19/73/19 23/74/19 21/75/19 17/76/19
f 18/77/20 22/78/20 24/79/20 20/80/20
f 25/81/21 26/82/21 27/83/21 28/84/21
f 24/85/22 4/86/22 3/87/22 23/88/22
f 23/89/23 3/90/23 1/91/23 21/92/23
f 22/93/24 2/94/24 4/95/24 24/96/24
f 26/97/25 25/98/25 21/99/25 1/100/25
f 28/101/26 27/102/26 2/103/26 22/104/26
f 29/105/27 26/106/27 1/107/27 5/108/27
f 27/109/28 30/110/28 6/111/28 2/112/28
f 25/113/29 31/114/29 17/115/29 21/116/29
f 32/117/30 28/118/30 22/119/30 18/120/30
f 31/121/31 33/122/31 13/123/31 17/124/31
f 34/125/32 32/126/32 18/127/32 14/128/32
f 33/129/33 35/130/33 9/131/33 13/132/33
f 36/133/34 34/134/34 14/135/34 10/136/34
f 35/137/35 29/138/35 5/139/35 9/140/35
f 30/141/36 36/142/36 10/143/36 6/144/36
o plane
v 0.375 0.5 1.1102230246251565e-16
v 0.375 -0.5 -1.1102230246251565e-16
v -0.375 0.5 1.1102230246251565e-16
v -0.375 -0.5 -1.1102230246251565e-16
v 0 0.5 1.1102230246251565e-16
v 0 -0.5 -1.1102230246251565e-16
v 0.5625 0 0
v 0 0 0
v -0.5625 0 0
vt 0.2734375 1
vt 0.2734375 0.9375
vt 0.34375 0.9375
vt 0.3203125 1
vt 0.2265625 1
vt 0.203125 0.9375
vt 0.2734375 0.9375
vt 0.2734375 1
vt 0.3203125 0.875
vt 0.34375 0.9375
vt 0.2734375 0.9375
vt 0.2734375 0.875
vt 0.2734375 0.875
vt 0.2734375 0.9375
vt 0.203125 0.9375
vt 0.2265625 0.875
vn 0 2.220446049250313e-16 -1
vn 0 2.220446049250313e-16 -1
vn 0 2.220446049250313e-16 -1
vn 0 2.220446049250313e-16 -1
usemtl m_8f76133d-4e25-b2ea-eb68-5ac9983bed9a
f 42/145/37 44/146/37 43/147/37 38/148/37
f 40/149/38 45/150/38 44/151/38 42/152/38
f 37/153/39 43/154/39 44/155/39 41/156/39
f 41/157/40 44/158/40 45/159/40 39/160/40